<svg xmlns="http://www.w3.org/2000/svg" viewBox="0 0 64 64" id="page-refresh">
  <path fill="#010101" d="M9.34 25.58A1 1 0 0 0 8 25.7L5.74 28.33A28.26 28.26 0 0 1 33.83 2.93a1 1 0 1 0 0-1.93 30.21 30.21 0 0 0-30 27.43l-2-2.69A1 1 0 1 0 .2 26.91L3.82 31.7l0 .05 0 .05a1 1 0 0 0 .7.33h0a1 1 0 0 0 .59-.21l.14-.12h0l.06-.09 4-4.75A1 1 0 0 0 9.34 25.58zM49.27 56a.16.16 0 0 0-.07-.07.47.47 0 0 0-.09-.12l0 0a.61.61 0 0 0-.16-.13.46.46 0 0 0-.16-.07.49.49 0 0 0-.16 0l-6.24-1.13a1 1 0 0 0-1.12.79A1 1 0 0 0 42 56.27l3.42.62A28.29 28.29 0 0 1 9.38 45.27a1 1 0 0 0-1.68 1A30.16 30.16 0 0 0 46.49 58.53l-1.32 3.12a1 1 0 0 0 .52 1.28 1.22 1.22 0 0 0 .38.07 1 1 0 0 0 .89-.6l2.32-5.5 0-.08 0-.08a1 1 0 0 0-.06-.76A0 0 0 0 0 49.27 56z"></path>
  <polygon fill="#010101" points="43.11 14.63 43.11 19.37 47.87 19.37 43.11 14.63"></polygon>
  <path fill="#010101" d="M20.23 13.25V48.91h29V21.31h-7.1a1 1 0 0 1-1-1V13.25zm4.18 4.11H36.84a1 1 0 0 1 0 1.94H24.41a1 1 0 0 1 0-1.94zM45.06 44.81H24.41a1 1 0 1 1 0-1.94H45.06a1 1 0 1 1 0 1.94zm0-6.38H24.41a1 1 0 0 1 0-1.94H45.06a1 1 0 0 1 0 1.94zm0-6.38H24.41a1 1 0 1 1 0-1.94H45.06a1 1 0 0 1 0 1.94zm0-8.31a1 1 0 0 1 1 1 1 1 0 0 1-1 1H24.41a1 1 0 0 1-1-1 1 1 0 0 1 1-1zM63 23.35A29.91 29.91 0 0 0 51.21 6.51l3.35-.43A1 1 0 0 0 55.4 5a1 1 0 0 0-1.08-.84l-5.9.75h-.15a.35.35 0 0 0-.14 0A.31.31 0 0 0 48 5a.87.87 0 0 0-.4.36h0l0 0a1.34 1.34 0 0 0-.07.18.8.8 0 0 0 0 .27.83.83 0 0 0 0 .22s0 0 0 .05 0 0 0 0l2.14 6a1 1 0 0 0 .92.64.91.91 0 0 0 .32-.06 1 1 0 0 0 .59-1.24L50.3 8.23a28.22 28.22 0 0 1 8 37 1 1 0 0 0 1.69 1A30 30 0 0 0 63 23.35z"></path>
</svg>
