<svg xmlns="http://www.w3.org/2000/svg" viewBox="0 0 512 512" id="profile-page">
  <path d="M324.95,37.781A10,10,0,0,0,318.03,35h-188a50.057,50.057,0,0,0-50,50V427a50.057,50.057,0,0,0,50,50H381.542a50.057,50.057,0,0,0,50-50V144.22a10,10,0,0,0-3.08-7.219Zm3.08,30.656,67.737,64.928H348.03a20.023,20.023,0,0,1-20-20ZM381.542,457H130.03a30.034,30.034,0,0,1-30-30V85a30.034,30.034,0,0,1,30-30h178v58.366a40.045,40.045,0,0,0,40,40h63.512V427A30.034,30.034,0,0,1,381.542,457Z"></path>
  <path d="M254.243 264.018a48.6 48.6 0 1 0-48.6-48.6A48.653 48.653 0 0 0 254.243 264.018zm0-77.195a28.6 28.6 0 1 1-28.6 28.6A28.63 28.63 0 0 1 254.243 186.823zM273.36 268.049H238.8a67.716 67.716 0 0 0-67.639 67.639v44.7a10 10 0 0 0 10 10H330.409a10 10 0 0 0 10-10V334.627C340.409 297.916 310.331 268.049 273.36 268.049zM320.409 370.39H191.165v-34.7A47.693 47.693 0 0 1 238.8 288.049H273.36c25.943 0 47.049 20.9 47.049 46.578z"></path>
</svg>
